<svg xmlns="http://www.w3.org/2000/svg" xmlns:xlink="http://www.w3.org/1999/xlink" version="1.1" x="0px" y="0px" viewBox="0 0 468.998 586.2475" style="enable-background:new 0 0 468.998 468.998;" xml:space="preserve"><g><g><path d="M327.26,258.869l-20.501-2.983c-1.496-5.045-3.521-9.934-6.035-14.564l12.392-16.615c0.594-0.796,0.513-1.907-0.189-2.61    l-23.541-23.547c-0.702-0.702-1.813-0.784-2.61-0.189l-16.608,12.394c-4.627-2.513-9.513-4.539-14.56-6.036l-2.981-20.508    c-0.144-0.983-0.986-1.712-1.979-1.712h-33.291c-0.993,0-1.836,0.729-1.979,1.712l-2.982,20.508    c-5.045,1.497-9.932,3.523-14.56,6.037l-16.608-12.395c-0.798-0.594-1.908-0.513-2.61,0.189l-23.54,23.547    c-0.702,0.703-0.783,1.813-0.189,2.61l12.392,16.614c-2.513,4.628-4.538,9.517-6.035,14.564l-20.502,2.983    c-0.982,0.143-1.712,0.986-1.712,1.979v33.301c0,0.993,0.729,1.836,1.712,1.979l20.502,2.983    c1.497,5.048,3.522,9.937,6.035,14.564l-12.392,16.614c-0.594,0.796-0.513,1.907,0.189,2.61l23.54,23.547    c0.701,0.702,1.812,0.783,2.61,0.189l16.608-12.395c4.628,2.514,9.515,4.54,14.56,6.037l2.982,20.508    c0.144,0.983,0.986,1.712,1.979,1.712h33.291c0.993,0,1.836-0.729,1.979-1.712l2.981-20.508c5.047-1.497,9.933-3.523,14.56-6.036    l16.608,12.394c0.799,0.595,1.909,0.513,2.61-0.189l23.541-23.547c0.702-0.703,0.783-1.813,0.189-2.61l-12.392-16.614    c2.513-4.627,4.538-9.516,6.035-14.564l20.501-2.983c0.982-0.143,1.712-0.986,1.712-1.979v-33.301    C328.972,259.855,328.242,259.012,327.26,258.869z M282.725,277.498c0,26.4-21.857,47.877-48.725,47.877    s-48.725-21.478-48.725-47.877s21.857-47.877,48.725-47.877S282.725,251.099,282.725,277.498z"/><g><g><path d="M253.08,299.388c-0.531,0-1.062-0.21-1.455-0.628l-19.08-20.238c-0.35-0.371-0.545-0.862-0.545-1.372v-27.851      c0-1.104,0.896-2,2-2s2,0.896,2,2v27.057l18.535,19.66c0.758,0.804,0.721,2.07-0.083,2.827      C254.065,299.207,253.572,299.388,253.08,299.388z"/></g></g></g><g><g><g><g><path d="M86.609,356.04c-0.726,0-1.426-0.396-1.78-1.085c-12.329-23.96-18.581-49.838-18.581-76.916       c0-38.222,13.194-75.686,37.151-105.491c23.598-29.357,56.642-50.212,93.044-58.723c1.068-0.252,2.15,0.416,2.402,1.492       c0.252,1.076-0.416,2.151-1.492,2.403c-74.838,17.498-127.105,83.424-127.105,160.32c0,26.435,6.103,51.697,18.138,75.085       c0.506,0.982,0.119,2.188-0.863,2.693C87.229,355.969,86.917,356.04,86.609,356.04z"/></g></g><g><g><circle cx="98.021" cy="373.009" r="4.998"/></g></g></g><g><g><g><ellipse cx="237.527" cy="134.984" rx="4.114" ry="4.525"/></g></g><g><g><ellipse cx="265.001" cy="134.984" rx="4.114" ry="4.525"/></g></g><g><g><path d="M251.265,152.425c-3.948,0-7.161-3.212-7.161-7.16v-1.357c0-0.829,0.672-1.5,1.5-1.5s1.5,0.671,1.5,1.5v1.357       c0,2.294,1.866,4.16,4.161,4.16c2.294,0,4.16-1.866,4.16-4.16v-1.357c0-0.829,0.672-1.5,1.5-1.5s1.5,0.671,1.5,1.5v1.357       C258.425,149.213,255.213,152.425,251.265,152.425z"/></g></g></g></g><g><g><g><path d="M67.185,0.996H2c-1.104,0-2,0.896-2,2v65.893c0,1.104,0.896,2,2,2h65.185c1.104,0,2-0.896,2-2V2.996      C69.185,1.892,68.289,0.996,67.185,0.996z M14.4,38.908c0.77-0.792,2.037-0.809,2.828-0.039l9.064,8.818l28.479-28.05      c0.787-0.775,2.053-0.766,2.828,0.021c0.775,0.787,0.766,2.053-0.021,2.828L27.705,51.911c-0.775,0.764-2.018,0.767-2.798,0.009      L14.439,41.736C13.647,40.966,13.63,39.7,14.4,38.908z"/><g><g><g><path d="M149.813,23.147H92.26c-1.104,0-2-0.896-2-2s0.896-2,2-2h57.554c1.104,0,2,0.896,2,2S150.918,23.147,149.813,23.147z         "/></g></g><g><g><path d="M129.846,53.098H92.26c-1.104,0-2-0.896-2-2s0.896-2,2-2h37.586c1.104,0,2,0.896,2,2S130.95,53.098,129.846,53.098z"/></g></g></g></g><g><g><g><g><path d="M67.185,166.889H2c-1.104,0-2-0.896-2-2V98.996c0-1.104,0.896-2,2-2h65.185c1.104,0,2,0.896,2,2v65.893         C69.185,165.994,68.289,166.889,67.185,166.889z M4,162.889h61.185v-61.893H4V162.889z"/></g></g><g><g><path d="M24.907,147.92l-10.468-10.184c-0.792-0.771-0.81-2.037-0.039-2.828c0.771-0.792,2.038-0.808,2.828-0.039         l9.064,8.818l28.479-28.05c0.787-0.775,2.053-0.766,2.828,0.021c0.775,0.787,0.766,2.053-0.021,2.828l-29.874,29.424         C27.316,148.294,26.042,148.924,24.907,147.92z"/></g></g></g><g><g><g><path d="M149.813,119.147H92.26c-1.104,0-2-0.896-2-2s0.896-2,2-2h57.554c1.104,0,2,0.896,2,2         S150.918,119.147,149.813,119.147z"/></g></g><g><g><path d="M109.846,149.098H92.26c-1.104,0-2-0.896-2-2s0.896-2,2-2h17.586c1.104,0,2,0.896,2,2         S110.95,149.098,109.846,149.098z"/></g></g></g></g></g><g><g><g><path d="M464,101.019h-40.934c-1.104,0-2-0.896-2-2V3.176c0-1.104,0.896-2,2-2H464c1.104,0,2,0.896,2,2v27.767       c0,1.104-0.896,2-2,2s-2-0.896-2-2V5.176h-36.934v91.843H462v-26.13c0-1.104,0.896-2,2-2s2,0.896,2,2v28.13       C466,100.124,465.104,101.019,464,101.019z"/></g></g><g><g><circle cx="464" cy="51.098" r="4.998"/></g></g><g><g><path d="M399.104,101.019h-40.934c-1.104,0-2-0.896-2-2V23.143c0-1.104,0.896-2,2-2h40.934c1.104,0,2,0.896,2,2v75.876       C401.104,100.124,400.209,101.019,399.104,101.019z M360.171,97.019h36.934V25.143h-36.934V97.019z"/></g></g><g><g><path d="M334.21,101.019h-40.934c-1.104,0-2-0.896-2-2V43.111c0-1.104,0.896-2,2-2h40.934c1.104,0,2,0.896,2,2v55.909       C336.21,100.124,335.314,101.019,334.21,101.019z M295.276,97.019h36.934V45.111h-36.934V97.019z"/></g></g></g></g><path d="M465.762,422.697l-60.487-41.656c-1.257-0.927-3.185,0.085-3.135,1.647v19.336h-53.181   c33.455-30.836,54.45-75.001,54.45-123.985c0-38.691-13.487-76.514-37.977-106.5c-23.802-29.144-56.878-49.677-93.282-57.946   v-24.53c0.05-1.545-1.842-2.561-3.104-1.668l-70.644,46.736c-1.181,0.732-1.181,2.604,0,3.336l70.644,46.736   c1.26,0.893,3.153-0.122,3.104-1.668v-22.753c51.14,16.142,86.63,64.385,86.63,118.257c0,68.365-55.604,123.985-123.952,123.985   c-68.347,0-123.951-55.62-123.951-123.985c0-52.144,32.94-99.036,81.969-116.687c1.039-0.374,1.578-1.52,1.204-2.559   c-0.374-1.04-1.52-1.58-2.56-1.205c-50.609,18.22-84.613,66.626-84.613,120.451c0,59.596,40.932,109.808,96.153,123.985h-94.517   l-30.469-20.983c-1.259-0.927-3.184,0.085-3.135,1.647v19.336H3.373c-1.104,0-2,0.896-2,2v40.64c0,1.104,0.896,2,2,2h71.536V466   c-0.049,1.562,1.875,2.574,3.135,1.647l30.468-20.983h126.316c0.365,0,0.727-0.012,1.091-0.014c-0.02,0.004-0.04,0.01-0.06,0.014   h166.28V466c-0.049,1.562,1.875,2.574,3.135,1.647l60.487-41.656C466.902,425.253,466.902,423.435,465.762,422.697z    M234.828,442.664H114.321l24.21-16.673c1.14-0.738,1.14-2.556,0-3.294l-24.21-16.673h120.507   c70.553,0,127.952-57.414,127.952-127.985c0-28.251-9.021-55.034-26.086-77.453c-16.517-21.697-39.95-37.828-65.984-45.422   c-1.229-0.396-2.595,0.628-2.56,1.92v21.729l-65.019-43.015l65.019-43.015v22.414c0,0.941,0.656,1.755,1.576,1.955   c75.144,16.293,129.683,83.956,129.683,160.887C399.409,368.814,325.578,442.664,234.828,442.664z"/></g><text x="0" y="483.998" fill="#000000" font-size="5px" font-weight="bold" font-family="'Helvetica Neue', Helvetica, Arial-Unicode, Arial, Sans-serif">Created by SBTS</text><text x="0" y="488.998" fill="#000000" font-size="5px" font-weight="bold" font-family="'Helvetica Neue', Helvetica, Arial-Unicode, Arial, Sans-serif">from the Noun Project</text></svg>