<svg xmlns="http://www.w3.org/2000/svg" xmlns:xlink="http://www.w3.org/1999/xlink" version="1.1" x="0px" y="0px" viewBox="0 0 468.046 585.0575" style="enable-background:new 0 0 468.046 468.046;" xml:space="preserve"><g><path d="M16.042,324.13l74.818-0.716c1.104-0.011,1.991-0.915,1.981-2.019c-0.011-1.105-0.955-2.004-2.019-1.981l-72.799,0.697   V115.452c0-1.104-0.896-2-2-2s-2,0.896-2,2V322.13C14.001,323.211,14.961,324.162,16.042,324.13z"/><circle cx="16.023" cy="94.452" r="5"/><path d="M395.603,322.13c0,1.104,0.896,2,2,2h54.42c1.104,0,2-0.896,2-2V115.028c0-1.104-0.896-2-2-2s-2,0.896-2,2V320.13h-52.42   C396.498,320.13,395.603,321.026,395.603,322.13z"/><path d="M87.172,375.56c-6.063-1.283-12.058,2.618-13.354,8.699c-1.634,6.757,4.041,13.792,10.984,13.613   c5.202,0,9.896-3.645,11.025-8.944C97.213,383.033,93.123,376.694,87.172,375.56z M91.915,388.094   c-0.837,3.928-4.701,6.45-8.613,5.62c-3.838-0.732-6.466-4.82-5.572-8.621c0.73-3.423,3.758-5.778,7.114-5.778   C89.32,379.201,92.968,383.74,91.915,388.094z"/><path d="M465.462,15.085L417.158,29.19h-91.613l4.988-8.609c3.925-6.298,1.799-15.217-4.761-18.789   c-6.416-3.69-14.645-1.496-18.344,4.89L294.387,29.19H2.023c-1.105,0-2,0.895-2,2v38.262c0,1.105,0.895,2,2,2h157.333v174.751   c-3.836-0.339-7.733,0.403-11.233,2.218l-16.116,8.358c1.79-14.412,1.826-28.962,0.059-43.313   c-0.123-0.997-0.979-1.745-1.984-1.745H47.036c-1.171-0.018-2.152,1.117-1.981,2.273c3.472,28.078-0.135,56.943-10.276,83.347   c-0.504,1.254,0.528,2.732,1.877,2.693l14.654-0.011c-0.129,1.216-0.104,2.467,0.116,3.729c1.085,7.171,8.528,12.399,15.618,10.973   l42.606-7.579l-1.158,20.35c-0.346,6.073-2.421,11.92-5.983,16.851l-1.557,2.156l-3.42-2.584c-0.846-0.666-2.174-0.479-2.804,0.394   l-10.365,13.781l-3.802-2.871c-0.851-0.671-2.194-0.474-2.817,0.413L16.14,439.566c-0.373,0.508-0.484,1.161-0.302,1.764   s0.638,1.084,1.23,1.299l69.502,25.296c0.224,0.082,0.455,0.121,0.684,0.121c0.625,0,1.23-0.293,1.615-0.819l48.65-66.531   c0.645-0.882,0.463-2.119-0.409-2.777l-3.809-2.875l10.36-13.773c0.663-0.881,0.487-2.133-0.393-2.798l-5.752-4.346   c2.979-3.016,6.369-5.33,10.09-6.868c7.747-3.202,21.312-12.908,25.546-41.978l1.102-1.15h159.48c0.874,0,1.717-0.515,1.981-1.348   c0.438-1.381-0.581-2.652-1.897-2.652H308.69V124.333c12.253,1.991,21.55,1.07,28.502-1.083   c-0.76,18.89-4.653,37.437-11.413,55.093c-0.504,1.254,0.528,2.732,1.877,2.693l83.048-0.061c0.836,0,1.584-0.521,1.875-1.306   c9.136-23.837,13.044-48.94,11.452-74.438l42.55-12.343c0.855-0.248,1.443-1.031,1.443-1.921V17.005   C468.023,15.671,466.743,14.711,465.462,15.085z M86.527,463.653l-65.583-23.871l58.824-80.144l53.361,40.286L86.527,463.653z    M323.228,33.19h80.232l-37.934,11.077c-1.047,0.283-1.69,1.476-1.352,2.506l1.397,4.555l-16.496,5.027   c-1.035,0.293-1.665,1.478-1.329,2.5l1.258,4.098c-13.413,5.24-27.171-1.873-39.958-5.288L323.228,33.19z M4.023,33.19H292.07   l-9.555,16.492c-6.721-2.469-14.436-1.166-19.714,3.742l-15.262,14.027H4.023V33.19z M195.282,96.722h40.396   c1.303,3.102,3.363,5.873,6.052,8.034l6.055,4.868l-0.147,0.255h-39.531c-0.874,0-1.717,0.515-1.981,1.348   c-0.438,1.381,0.581,2.652,1.897,2.652h37.298l-9.034,15.593c-0.168,0.29-0.26,0.618-0.269,0.953l-0.109,4.454h-28.801   c-0.874,0-1.717,0.515-1.981,1.348c-0.438,1.381,0.581,2.652,1.897,2.652h28.788l-0.379,15.458   c-0.086,1.532,1.754,2.596,3.039,1.757l20.49-12.467c0.286-0.174,0.523-0.417,0.691-0.706l5.121-8.839   c2.898,1.42,6.207,2.046,9.447,1.721c-1.581,13.775-4.779,27.294-9.558,40.217l-0.353,0.955l-78.783,0.058   C194.898,151.488,198.26,123.786,195.282,96.722z M249.814,106.123l-5.578-4.484c-7.782-5.962-8.196-18.498-0.825-24.96   l22.096-20.309c3.997-3.689,9.795-4.875,14.946-3.13L249.814,106.123z M149.965,251.972c8.593-4.716,20.234-0.038,23.172,9.313   l2.306,6.774l-60.173,10.704c0.123-5.436,3.22-10.48,8.054-12.974L149.965,251.972z M39.526,296.033   c9.373-25.545,12.734-53.247,9.756-80.312h79.022c1.616,14.36,1.4,28.912-0.619,43.3l-6.195,3.213   c-5.932,3.077-9.802,9.054-10.181,15.727l-0.086,1.523l-48.929,8.704c-4.563,0.812-8.18,3.869-9.927,7.835L39.526,296.033z    M169.28,324.099c-3.853,27.584-16.191,36.565-23.203,39.464c-4.375,1.809-8.341,4.543-11.786,8.129l-30.147-22.775l1.607-2.226   c4.008-5.549,6.344-12.128,6.732-18.962l1.212-21.301l33.343-5.931l-2.369,2.392c-0.615,0.621-0.842,1.583-0.435,2.357   c0.674,1.282,2.293,1.452,3.219,0.518l21.688-21.895c5.76-6.123,16.599-5.17,21.136,1.919c3.599,5.284,3.17,12.564-1.461,17.358   l-18.999,19.834C169.527,323.283,169.339,323.68,169.28,324.099z M304.69,320.13H178.086l13.621-14.219   c3.789-3.955,5.415-9.175,4.878-14.229l10.072-1.792c0.329-0.059,0.638-0.199,0.899-0.408l18.724-14.992   c1.228-0.92,0.856-3.014-0.612-3.457l-22.669-7.627c-0.318-0.107-0.659-0.133-0.988-0.074l-22.583,4.017   c-2.297-8.602-6.598-18.078-16.071-20.388V71.452h79.83c-6.47,4.987-10.497,13.066-8.728,21.27h-41.423   c-1.171-0.018-2.152,1.117-1.981,2.273c3.472,28.078-0.135,56.943-10.276,83.347c-0.504,1.254,0.528,2.732,1.877,2.693   l83.048-0.061c0.836,0,1.584-0.521,1.875-1.306c5.486-14.352,9.139-29.388,10.772-44.759c0.493-0.168,0.985-0.344,1.47-0.558   l24.682-10.87c0.094,0.061,0.093,0.061,0.187,0.122V320.13z M304.568,119.495c-0.41-0.088-0.839-0.044-1.224,0.125l-25.136,11.069   c-6.596,2.962-14.298,0.183-17.675-5.911c-3.943-6.73-0.886-16.055,6.289-19.171l27.902-12.85c0.849-0.391,1.403-1.299,1.224-2.217   c-0.26-1.333-1.656-1.989-2.806-1.458l-3.134,1.443l16.978-29.304c13.884,3.797,28.655,11.191,43.193,5.556l11.091,36.12   c-9.962,3.893-11.92,11.596-22.877,15.705C331.031,121.447,320.204,122.835,304.568,119.495z M409.662,176.02l-0.353,0.955   l-78.783,0.058c6.519-17.765,10.117-36.353,10.72-55.278c10.351-4.238,12.043-11.071,21.209-14.997l2.116,6.892   c0.321,1.064,1.468,1.648,2.495,1.326l16.486-5.024l1.399,4.562c0.318,1.054,1.448,1.639,2.469,1.334l32.667-9.476   C421.438,130.208,417.943,153.627,409.662,176.02z M464.023,89.464l-75.824,21.995l-19.606-63.921l95.43-27.866V89.464z"/><path d="M390.624,72.647c6.031,0.886,11.904-3.405,12.743-9.574c0.969-5.98-3.588-11.991-9.602-12.705   c-6.157-0.863-11.875,3.432-12.743,9.574C380.053,65.922,384.609,71.934,390.624,72.647z M384.983,60.501   c0.511-3.619,3.637-6.242,7.208-6.242c4.284-0.107,7.918,4.02,7.214,8.256c-0.559,3.96-4.251,6.728-8.227,6.171c0,0,0,0,0,0   C387.301,68.225,384.358,64.356,384.983,60.501z"/><path d="M34.909,178.342c-0.504,1.254,0.528,2.732,1.877,2.693l83.048-0.061c0.836,0,1.584-0.521,1.875-1.306   c10.358-26.99,14.035-56.492,10.49-85.19c-0.123-1.002-0.975-1.756-1.985-1.756H47.166c-1.171-0.018-2.152,1.117-1.981,2.273   C48.657,123.073,45.05,151.939,34.909,178.342z M49.413,96.722h79.022c3.004,26.709-0.32,54.089-9.643,79.298l-0.353,0.955   l-78.783,0.058C49.029,151.488,52.391,123.786,49.413,96.722z"/><path d="M61.153,138.879h36c1.104,0,2-0.896,2-2s-0.896-2-2-2h-36c-1.104,0-2,0.896-2,2S60.049,138.879,61.153,138.879z"/><path d="M120.153,111.879c0-1.104-0.896-2-2-2h-56c-1.104,0-2,0.896-2,2s0.896,2,2,2h56   C119.258,113.879,120.153,112.983,120.153,111.879z"/><path d="M112.153,159.879h-56c-1.104,0-2,0.896-2,2s0.896,2,2,2h56c1.104,0,2-0.896,2-2S113.258,159.879,112.153,159.879z"/><path d="M61.153,256.879h36c1.104,0,2-0.896,2-2s-0.896-2-2-2h-36c-1.104,0-2,0.896-2,2S60.049,256.879,61.153,256.879z"/><path d="M62.153,231.879h56c1.104,0,2-0.896,2-2s-0.896-2-2-2h-56c-1.104,0-2,0.896-2,2S61.049,231.879,62.153,231.879z"/><ellipse cx="223.993" cy="234.389" rx="4.64" ry="5.086"/><ellipse cx="254.98" cy="234.389" rx="4.64" ry="5.086"/><path d="M233.103,242.417c-1.104,0-2,0.896-2,2v1.525c0,4.61,3.761,8.361,8.384,8.361s8.384-3.751,8.384-8.361v-1.525   c0-1.104-0.896-2-2-2s-2,0.896-2,2v1.525c0,2.405-1.967,4.361-4.384,4.361s-4.384-1.957-4.384-4.361v-1.525   C235.103,243.312,234.207,242.417,233.103,242.417z"/><path d="M275.547,211.722h-83.048c-1.171-0.018-2.152,1.117-1.981,2.273c1.378,11.195,1.651,22.59,0.812,33.867   c-0.082,1.102,0.745,2.061,1.846,2.143c1.109,0.073,2.061-0.745,2.143-1.846c0.802-10.781,0.61-21.667-0.574-32.437h79.023   c3.046,27.048-0.411,54.779-9.996,80.254l-49.754,0.051c-1.104,0.001-1.999,0.897-1.998,2.002c0.001,1.104,0.896,1.998,2,1.998   c0,0,0.001,0,0.002,0l51.145-0.052c0.836-0.001,1.584-0.522,1.874-1.306c10.358-26.99,14.035-56.492,10.49-85.19   C277.409,212.475,276.557,211.722,275.547,211.722z"/><path d="M233.487,281.168c0,1.104,0.896,2,2,2h22c1.104,0,2-0.896,2-2s-0.896-2-2-2h-22   C234.382,279.168,233.487,280.064,233.487,281.168z"/><path d="M202.023,163.879h26c1.104,0,2-0.896,2-2s-0.896-2-2-2h-26c-1.104,0-2,0.896-2,2S200.919,163.879,202.023,163.879z"/><path d="M352.023,138.879h36c1.104,0,2-0.896,2-2s-0.896-2-2-2h-36c-1.104,0-2,0.896-2,2S350.919,138.879,352.023,138.879z"/><path d="M393.023,159.879h-46c-1.104,0-2,0.896-2,2s0.896,2,2,2h46c1.104,0,2-0.896,2-2S394.128,159.879,393.023,159.879z"/><path d="M441.816,432.388c5.496-7.098,8.781-15.991,8.784-25.64l0.017-42.613c0.178-7.822-6.574-14.855-14.413-14.697   c-3.642,0.003-6.962,1.515-9.385,3.953v-0.726c0-7.875-6.388-14.281-14.241-14.281c-4.081,0-7.785,1.756-10.391,4.555   c-0.87-6.361-6.745-11.586-13.202-11.458c-3.654,0.003-6.973,1.508-9.392,3.94l0.02-32.748c0-0.909-0.088-1.803-0.256-2.676   l31.345-0.023c0.837-0.001,1.584-0.522,1.875-1.306c10.36-26.993,14.036-56.499,10.489-85.2c-0.123-0.997-0.979-1.746-1.984-1.746   h-83.047c-1.171-0.018-2.152,1.117-1.981,2.273c3.472,28.078-0.135,56.943-10.276,83.347c-0.504,1.254,0.528,2.732,1.877,2.693   l24.437-0.018c-0.165,0.855-0.259,1.735-0.259,2.637l-0.047,66.404l-3.809-3.466c-7.162-6.557-20.498-9.444-27.301-1.029   c-5.193,6.542-2.985,15.825,4.716,19.796c14.423,8.086,24.947,21.173,29.633,36.849c1.141,3.818,3.029,7.457,5.462,10.765   c-9.431,2.336-22.149,6.937-22.149,14.763c0,12.341,31.944,19,62,19s62-6.659,62-19   C462.338,440.948,455.078,435.902,441.816,432.388z M352.82,229.168h56c1.104,0,2,0.896,2,2s-0.896,2-2,2h-56c-1.104,0-2-0.896-2-2   S351.715,229.168,352.82,229.168z M351.82,254.168h36c1.104,0,2,0.896,2,2s-0.896,2-2,2h-36c-1.104,0-2-0.896-2-2   S350.715,254.168,351.82,254.168z M346.82,283.168c-1.104,0-2-0.896-2-2s0.896-2,2-2h56c1.104,0,2,0.896,2,2s-0.896,2-2,2H346.82z    M408.609,444.732l-17.143,0.004c-0.007,0-0.015,0-0.022,0c-13.904,0-28.519-11.064-32.586-24.673   c-4.985-16.676-16.175-30.595-31.509-39.192c-5.577-2.869-7.198-9.117-3.539-13.82c5.467-6.466,15.917-3.493,21.475,1.501   l7.152,6.508c1.207,1.175,3.401,0.206,3.346-1.478l0.051-70.923c0.552-13.159,19.274-13.13,19.781,0.013l-0.042,69.277   c0,1.105,0.894,2,1.999,2.001h0.001c1.104,0,1.999-0.894,2-1.998l0.022-26.813c0.005-5.32,4.22-9.651,9.396-9.656   c5.117-0.099,9.48,4.523,9.363,9.625l-0.024,29.974l0.01,0.463c0.028,1.29,1.308,2.276,2.602,1.859   c0.862-0.277,1.397-1.145,1.397-2.05v-22.674c0.005-0.053,0.008-0.106,0.009-0.16c0.079-5.587,4.669-10.133,10.232-10.133   c5.647,0,10.241,4.612,10.241,10.281l-0.021,28.438c-0.001,1.104,0.894,2,1.999,2h0.001c1.104,0,1.999-0.895,2-1.998l0.015-17.975   c0.004-0.047,0.006-0.095,0.007-0.144c0.061-5.26,4.272-9.543,9.389-9.548c5.687-0.11,10.54,5.024,10.409,10.694l-0.017,42.614   C446.593,427.687,429.55,444.727,408.609,444.732z"/><path d="M411.908,389.869c2.527-2.417,6.485-2.417,9.01,0c0.388,0.371,0.885,0.555,1.382,0.555c1.731,0.063,2.7-2.271,1.383-3.445   c-4.077-3.9-10.464-3.9-14.541,0c-0.798,0.764-0.827,2.03-0.063,2.828C409.843,390.605,411.109,390.633,411.908,389.869z"/><ellipse cx="417.023" cy="404.854" rx="3.463" ry="3.521"/><path d="M377.275,389.869c2.527-2.417,6.485-2.417,9.01,0c0.388,0.371,0.885,0.555,1.382,0.555c1.731,0.063,2.7-2.271,1.383-3.445   c-4.077-3.9-10.464-3.9-14.541,0c-0.798,0.764-0.827,2.03-0.063,2.828C375.211,390.605,376.477,390.633,377.275,389.869z"/><path d="M417.023,394.052c-4.648,0-8.599,3.036-10.054,7.249c-4.49-2.653-10.036-2.653-14.525,0   c-1.454-4.214-5.406-7.249-10.054-7.249c-5.877,0-10.658,4.846-10.658,10.802s4.781,10.802,10.658,10.802   c5.564,0,10.139-4.346,10.611-9.863c3.89-3.304,9.52-3.304,13.41,0c0.472,5.517,5.047,9.863,10.611,9.863   c5.877,0,10.658-4.846,10.658-10.802S422.9,394.052,417.023,394.052z M382.39,411.656c-3.671,0-6.658-3.051-6.658-6.802   s2.987-6.802,6.658-6.802s6.658,3.051,6.658,6.802S386.062,411.656,382.39,411.656z M417.023,411.656   c-3.671,0-6.658-3.051-6.658-6.802s2.987-6.802,6.658-6.802s6.658,3.051,6.658,6.802S420.694,411.656,417.023,411.656z"/><ellipse cx="382.39" cy="404.854" rx="3.463" ry="3.521"/><path d="M409.584,421.98c-1.104,0-2,0.896-2,2c0,4.434-3.534,8.041-7.877,8.041s-7.877-3.607-7.877-8.041c0-1.104-0.896-2-2-2   s-2,0.896-2,2c0,6.64,5.328,12.041,11.877,12.041s11.877-5.401,11.877-12.041C411.584,422.875,410.689,421.98,409.584,421.98z"/></g><text x="0" y="483.046" fill="#000000" font-size="5px" font-weight="bold" font-family="'Helvetica Neue', Helvetica, Arial-Unicode, Arial, Sans-serif">Created by SBTS</text><text x="0" y="488.046" fill="#000000" font-size="5px" font-weight="bold" font-family="'Helvetica Neue', Helvetica, Arial-Unicode, Arial, Sans-serif">from the Noun Project</text></svg>